<svg xmlns="http://www.w3.org/2000/svg" width="28" height="28" viewBox="0 0 28 28">
    <path fill="#108EE9" fill-rule="evenodd" d="M0 14C0 6.268 6.268 0 14 0s14 6.268 14 14-6.268 14-14 14S0 21.732 0 14zm10.292-3.141a6.467 6.467 0 0 1-.947.072 5.38 5.38 0 0 1-1.263-.147c-.665-.16-1.266-.45-1.833-.825-.073-.049-.209-.097-.26-.064-.065.044-.102.171-.103.263-.01.532-.005 1.065-.005 1.597v1.967l-.001 4.223c0 .29.1.524.347.678 1.034.646 2.167.929 3.385.877.95-.04 1.866-.251 2.764-.542.998-.324 1.989-.674 2.984-1.007.872-.292 1.757-.53 2.675-.617 1.34-.125 2.602.116 3.758.83.267.165.38.1.38-.207v-4.235c0-1.185-.001-2.369.001-3.552.001-.339-.145-.584-.424-.773-1.513-1.024-3.163-1.151-4.871-.675-.998.279-1.969.652-2.94 1.013-1.195.445-2.373.934-3.647 1.124z"/>
</svg>
