<svg xmlns="http://www.w3.org/2000/svg" width="62" height="24" fill="none"><path fill="#108EE9" fill-rule="evenodd" d="M0 12C0 5.373 5.373 0 12 0s12 5.373 12 12c0 6.628-5.373 12-12 12S0 18.628 0 12Zm8.822-2.693c-.272.04-.542.063-.812.063-.362 0-.723-.04-1.083-.126a4.918 4.918 0 0 1-1.57-.708c-.063-.041-.18-.083-.223-.054-.056.038-.088.146-.09.225-.007.456-.003.913-.003 1.369v1.686l-.001 3.62c0 .247.085.449.297.58a4.961 4.961 0 0 0 2.902.752c.814-.034 1.6-.215 2.369-.464.856-.278 1.704-.578 2.558-.864.747-.25 1.506-.454 2.293-.528 1.147-.108 2.23.1 3.22.711.23.142.326.085.326-.177v-3.63c0-1.016 0-2.03.002-3.045 0-.29-.125-.5-.364-.662-1.297-.878-2.712-.987-4.176-.579-.854.239-1.687.56-2.52.869-1.024.38-2.034.8-3.125.962Z" clip-rule="evenodd"/><path fill="#108EE9" d="m29.5 18.3 5.616-12.6h2.88l5.634 12.6h-3.06L35.962 7.176h1.152L32.488 18.3H29.5Zm2.808-2.7.774-2.214h6.48l.792 2.214h-8.046ZM45.387 18.3V5.7h5.454c1.128 0 2.1.186 2.916.558.816.36 1.446.882 1.89 1.566.444.684.666 1.5.666 2.448 0 .936-.222 1.746-.666 2.43-.444.684-1.074 1.212-1.89 1.584-.816.36-1.788.54-2.916.54h-3.834l1.296-1.314V18.3h-2.916Zm2.916-4.464-1.296-1.386h3.672c.9 0 1.572-.192 2.016-.576.444-.384.666-.918.666-1.602 0-.696-.222-1.236-.666-1.62-.444-.384-1.116-.576-2.016-.576h-3.672l1.296-1.386v7.146ZM58.845 18.3V5.7h2.916v12.6h-2.916Z"/></svg>